# xmcd CD database file
#
# Track frame offsets:
#	150
#	22440
#	42435
#	62100
#	85128
#	104797
#	127068
#	145779
#	168674
#	188969
#	205230
#	229624
#	261153
#	283985
#	308564
#
# Disc length: 4361 seconds
#
# Revision: 0
# Processed by: cddbd v1.5.1PL2 Copyright (c) Steve Scherf et al.
# Submitted via: CDex 1.51
#
DISCID=eb11070f
DTITLE=Varios - Salsa Estelar
DYEAR=1900
DGENRE=Salsa
TTITLE0=Lluvia
TTITLE1=De punta a punta
TTITLE2=Lo quiero a morir
TTITLE3=Ven devòrame otra vez
TTITLE4=Asi fue
TTITLE5=Embrujo de amor
TTITLE6=Sobredosis de amor
TTITLE7=Pequeñas cosas
TTITLE8=Vestida de blanco
TTITLE9=Como la quiero, como la extraño
TTITLE10=Una aventura
TTITLE11=Caballo viejo
TTITLE12=Amores como el nuestro
TTITLE13=Jardìn prohibido
TTITLE14=Que bello
EXTD=
EXTT0=
EXTT1=
EXTT2=
EXTT3=
EXTT4=
EXTT5=
EXTT6=
EXTT7=
EXTT8=
EXTT9=
EXTT10=
EXTT11=
EXTT12=
EXTT13=
EXTT14=
PLAYORDER=
